<svg xmlns="http://www.w3.org/2000/svg" viewBox="747 635 504 106"><g fill="#eef1f4" fill-rule="evenodd"><path d="M1234.0 664.0 1231.0 666.0 1220.0 664.0 1199.0 664.0 1188.0 668.0 1183.0 671.0 1180.0 674.0 1176.0 682.0 1176.0 690.0 1179.0 696.0 1183.0 699.0 1191.0 703.0 1207.0 706.0 1215.0 709.0 1218.0 712.0 1218.0 716.0 1214.0 721.0 1207.0 724.0 1195.0 724.0 1188.0 721.0 1180.0 713.0 1178.0 706.0 1175.0 708.0 1176.0 722.0 1177.0 723.0 1177.0 732.0 1180.0 730.0 1187.0 730.0 1194.0 732.0 1202.0 733.0 1212.0 733.0 1218.0 732.0 1229.0 728.0 1239.0 719.0 1242.0 713.0 1243.0 709.0 1243.0 702.0 1241.0 697.0 1235.0 691.0 1231.0 689.0 1205.0 682.0 1202.0 679.0 1202.0 676.0 1205.0 673.0 1214.0 671.0 1220.0 672.0 1227.0 676.0 1233.0 683.0 1235.0 683.0Z"/><path d="M1084.0 669.0 1087.0 670.0 1089.0 672.0 1091.0 676.0 1091.0 721.0 1093.0 726.0 1097.0 730.0 1104.0 733.0 1112.0 733.0 1119.0 731.0 1136.0 721.0 1136.0 728.0 1137.0 729.0 1137.0 731.0 1167.0 731.0 1167.0 728.0 1165.0 728.0 1161.0 724.0 1160.0 720.0 1160.0 664.0 1143.0 665.0 1142.0 666.0 1128.0 666.0 1128.0 669.0 1132.0 670.0 1135.0 674.0 1136.0 678.0 1136.0 698.0 1135.0 705.0 1132.0 713.0 1125.0 719.0 1120.0 719.0 1118.0 718.0 1115.0 712.0 1115.0 664.0 1098.0 665.0Z"/><path d="M1018.0 671.0 1011.0 678.0 1007.0 684.0 1005.0 690.0 1005.0 705.0 1006.0 709.0 1010.0 717.0 1018.0 725.0 1030.0 731.0 1040.0 733.0 1051.0 733.0 1060.0 731.0 1070.0 732.0 1073.0 725.0 1073.0 722.0 1078.0 709.0 1078.0 707.0 1075.0 708.0 1073.0 712.0 1067.0 718.0 1059.0 722.0 1047.0 722.0 1041.0 719.0 1036.0 714.0 1032.0 705.0 1033.0 699.0 1080.0 690.0 1079.0 685.0 1075.0 677.0 1065.0 668.0 1052.0 664.0 1036.0 664.0 1031.0 665.0 1023.0 668.0ZM1053.0 680.0 1054.0 684.0 1053.0 688.0 1045.0 690.0 1036.0 691.0 1035.0 692.0 1031.0 691.0 1031.0 685.0 1034.0 678.0 1037.0 675.0 1043.0 673.0 1047.0 674.0 1049.0 676.0 1050.0 676.0Z"/><path d="M944.0 667.0 944.0 669.0 948.0 670.0 950.0 672.0 952.0 679.0 952.0 719.0 950.0 725.0 947.0 728.0 944.0 729.0 944.0 731.0 984.0 731.0 983.0 728.0 981.0 728.0 977.0 724.0 976.0 721.0 976.0 691.0 978.0 686.0 984.0 680.0 986.0 679.0 993.0 679.0 996.0 680.0 999.0 683.0 1004.0 665.0 1001.0 664.0 996.0 664.0 992.0 665.0 986.0 668.0 977.0 678.0 975.0 674.0 975.0 670.0 973.0 665.0 957.0 665.0Z"/><path d="M856.0 666.0 856.0 669.0 858.0 669.0 863.0 675.0 863.0 720.0 866.0 727.0 869.0 730.0 877.0 733.0 884.0 733.0 888.0 732.0 897.0 728.0 907.0 720.0 908.0 726.0 909.0 727.0 909.0 731.0 940.0 731.0 939.0 728.0 937.0 728.0 934.0 725.0 932.0 718.0 932.0 664.0 915.0 665.0 914.0 666.0 900.0 666.0 900.0 669.0 904.0 670.0 907.0 673.0 908.0 677.0 908.0 701.0 907.0 706.0 904.0 713.0 897.0 719.0 892.0 719.0 888.0 714.0 887.0 664.0 870.0 665.0 869.0 666.0Z"/><path d="M788.0 643.0 788.0 646.0 791.0 648.0 791.0 653.0 766.0 718.0 763.0 723.0 759.0 727.0 756.0 728.0 755.0 731.0 784.0 731.0 783.0 728.0 781.0 728.0 778.0 725.0 778.0 718.0 785.0 698.0 789.0 697.0 790.0 698.0 794.0 698.0 800.0 700.0 809.0 705.0 816.0 713.0 817.0 715.0 817.0 724.0 814.0 727.0 811.0 728.0 810.0 731.0 856.0 731.0 855.0 728.0 852.0 727.0 849.0 724.0 847.0 720.0 824.0 652.0 824.0 648.0 827.0 646.0 827.0 643.0ZM798.0 661.0 800.0 664.0 804.0 676.0 804.0 679.0 809.0 692.0 808.0 695.0 803.0 692.0 797.0 690.0 793.0 690.0 789.0 688.0 789.0 686.0Z"/></g></svg>